<svg fill="#333" version="1.1" xmlns="http://www.w3.org/2000/svg" xmlns:xlink="http://www.w3.org/1999/xlink" x="0px" y="0px" viewBox="0 0 1000 1000" enable-background="new 0 0 1000 1000" xml:space="preserve">
<g><g transform="translate(0.000000,511.000000) scale(0.100000,-0.100000)"><path d="M4118.9,3324.2c-41.5-15.8-116.7-57.4-168.1-91C3644.2,3027.5,380.8,681.8,311.6,616.6C266.1,575,200.9,482.1,163.3,408.9C107.9,294.2,100,260.6,100,110.2c0-144.4,7.9-183.9,55.4-278.9c29.7-63.3,87-148.3,128.6-191.8c85.1-95,3625.3-2640.4,3769.7-2713.5c116.7-57.4,308.5-75.2,437.1-39.6c180,49.5,320.4,229.4,363.9,464.8c13.8,75.2,21.8,530,21.8,1299.4v1182.7h2511.8H9900v276.9v276.9H7388.2H4878.4l-5.9,1261.8c-7.9,1414.1-2,1358.8-156.2,1532.8c-106.8,122.6-221.5,172.1-387.6,170.1C4253.4,3351.9,4160.4,3338,4118.9,3324.2z M4302.8,110.2c0-1580.3-7.9-2650.2-17.8-2650.2C4259.3-2540,740.8-14.3,699.3,35.1c-47.5,55.4-43.5,118.7,9.9,168.1c65.3,61.3,3556.1,2557.3,3575.9,2557.3C4294.9,2760.5,4302.8,1567.9,4302.8,110.2z"/></g></g>
</svg>