<svg fill="#333" version="1.1" xmlns="http://www.w3.org/2000/svg" xmlns:xlink="http://www.w3.org/1999/xlink" x="0px" y="0px" viewBox="0 0 1000 1000" enable-background="new 0 0 1000 1000" xml:space="preserve">
<g><g transform="translate(0.000000,511.000000) scale(0.100000,-0.100000)"><path d="M5444,3312.5c-106.8-53.4-219.6-182-271-306.6c-37.6-93-39.6-154.3-45.5-1356.8l-5.9-1261.8H2611.8H100V110.5v-276.9h2511.8h2509.8l5.9-1259.9c5.9-1159,9.9-1269.7,41.5-1354.8c49.4-124.6,170.1-259.1,284.8-312.5c128.6-61.3,348.1-51.4,490.5,21.7c124.6,63.3,3651,2587,3753.9,2683.9c41.5,41.6,102.9,130.5,138.4,201.7c55.4,112.7,63.3,146.4,63.3,296.7c0,144.4-7.9,183.9-55.4,278.9c-29.7,63.3-87,148.3-128.6,191.8c-85,94.9-3625.3,2640.4-3771.7,2713.5C5804,3365.9,5564.7,3373.9,5444,3312.5z M7500.9,1493C8472,796.8,9282.9,207.4,9300.7,185.6c59.3-67.2,43.5-124.6-47.5-199.7C9122.7-117,5760.5-2520,5726.8-2531.8c-25.7-9.9-29.7,288.8-29.7,2640.4c0,1651.5,7.9,2652.2,17.8,2652.2C5726.8,2760.7,6529.8,2191.1,7500.9,1493z"/></g></g>
</svg>